<svg width="513" height="512" viewBox="0 0 513 512" fill="none" xmlns="http://www.w3.org/2000/svg">
<path d="M0.529724 128C0.529724 57.3076 57.8373 3.05176e-05 128.53 3.05176e-05L384.53 3.05176e-05C455.222 3.05176e-05 512.53 57.3076 512.53 128V384C512.53 454.692 455.222 512 384.53 512H128.53C57.8373 512 0.529724 454.692 0.529724 384L0.529724 128Z" fill="black"/>
<path d="M150.817 360.432C130.086 339.21 116.042 312.244 110.459 282.944C104.877 253.644 108.007 223.326 119.455 195.823C130.903 168.321 150.153 144.87 174.772 128.435C199.392 112.001 228.274 103.321 257.766 103.494C287.259 103.666 316.037 112.683 340.462 129.405C364.887 146.127 383.862 169.802 394.987 197.436C406.112 225.071 408.888 255.423 402.963 284.656C397.038 313.889 382.678 340.689 361.7 361.667L256.883 254.366L150.817 360.432Z" fill="white"/>
</svg>
